<svg xmlns="http://www.w3.org/2000/svg" version="1.1" xmlns:xlink="http://www.w3.org/1999/xlink" xmlns:svgjs="http://svgjs.dev/svgjs" width="1000" height="623" viewBox="0 0 1000 623"><g transform="matrix(1,0,0,1,-0.6060513486797845,0.2522267206477409)"><svg viewBox="0 0 396 247" data-background-color="#f9f9f9" preserveAspectRatio="xMidYMid meet" height="623" width="1000" xmlns="http://www.w3.org/2000/svg" xmlns:xlink="http://www.w3.org/1999/xlink"><g id="tight-bounds" transform="matrix(1,0,0,1,0.23999633407720466,-0.09999999999999432)"><svg viewBox="0 0 395.52 247.2" height="247.2" width="395.52"><g><svg></svg></g><g><svg viewBox="0 0 395.52 247.2" height="247.2" width="395.52"><g><g><path xmlns="http://www.w3.org/2000/svg" d="M254.959 58.161c-6.775-8.56-14.969-15.358-24.582-20.394-9.613-5.036-20.486-7.553-32.617-7.554-12.131 0-23.003 2.518-32.617 7.554-9.613 5.036-17.785 11.834-24.514 20.394-2.48 3.15-4.742 6.491-6.787 10.021l-38.577 0c5.316-13.228 12.358-24.694 21.125-34.398 9.842-10.849 21.63-19.204 35.363-25.063 13.733-5.814 29.069-8.721 46.007-8.721 16.709 0 31.999 2.907 45.869 8.721 13.825 5.86 25.658 14.214 35.501 25.063 8.767 9.705 15.808 21.171 21.125 34.398l-38.541 0c-2.04-3.531-4.292-6.871-6.755-10.021zM140.629 190.207c6.729 8.24 14.901 14.763 24.514 19.57 9.613 4.807 20.486 7.21 32.617 7.21 12.131 0 23.003-2.403 32.617-7.21 9.613-4.807 17.808-11.33 24.582-19.57 2.831-3.466 5.382-7.196 7.654-11.189h38.524c-5.309 13.712-12.53 25.452-21.664 35.222-9.842 10.529-21.676 18.654-35.5 24.377-13.871 5.722-29.275 8.583-46.213 8.583-16.938 0-32.319-2.861-46.144-8.583-13.871-5.722-25.727-13.848-35.569-24.377-9.133-9.77-16.334-21.511-21.604-35.222h38.499c2.275 3.993 4.837 7.723 7.687 11.189z" fill="#030303" fill-rule="nonzero" stroke="none" stroke-width="1" stroke-linecap="butt" stroke-linejoin="miter" stroke-miterlimit="10" stroke-dasharray="" stroke-dashoffset="0" font-family="none" font-weight="none" font-size="none" text-anchor="none" style="mix-blend-mode: normal" data-fill-palette-color="tertiary"></path></g></g><g transform="matrix(1,0,0,1,0,80.70195227765726)"><svg viewBox="0 0 395.52 85.79609544468546" height="85.79609544468546" width="395.52"><g><svg viewBox="0 0 395.52 85.79609544468546" height="85.79609544468546" width="395.52"><g><svg viewBox="0 0 395.52 85.79609544468546" height="85.79609544468546" width="395.52"><g><svg viewBox="0 0 395.52 85.79609544468546" height="85.79609544468546" width="395.52"><g><svg viewBox="0 0 395.52 85.79609544468546" height="85.79609544468546" width="395.52"><g><svg viewBox="0 0 395.52 85.79609544468546" height="85.79609544468546" width="395.52"><g transform="matrix(1,0,0,1,0,0)"><svg width="395.52" viewBox="2.25 -24.5 115.23999786376953 25" height="85.79609544468546" data-palette-color="#030303"><path d="M5.75-20.85L5.75-20.85Q9.25-24.5 14.5-24.5L14.5-24.5Q17.05-24.5 19.28-23.53 21.5-22.55 23.18-20.85 24.85-19.15 25.8-16.88 26.75-14.6 26.75-12L26.75-12Q26.75-9.4 25.83-7.13 24.9-4.85 23.25-3.15 21.6-1.45 19.35-0.48 17.1 0.5 14.5 0.5L14.5 0.5Q11.85 0.5 9.63-0.48 7.4-1.45 5.75-3.15 4.1-4.85 3.18-7.13 2.25-9.4 2.25-12L2.25-12Q2.25-17.3 5.75-20.85ZM14.5-20.3L14.5-20.3Q11-20.3 8.88-18 6.75-15.7 6.75-12 6.75-8.3 8.88-6 11-3.7 14.5-3.7L14.5-3.7Q18.05-3.7 20.15-6.03 22.25-8.35 22.25-12 22.25-15.65 20.15-17.98 18.05-20.3 14.5-20.3ZM39.8-24L48.65-24 48.65-19.8 39.8-19.8Q38.35-19.8 37.3-19.25 36.25-18.7 36.25-17.7L36.25-17.7Q36.25-17.1 36.5-16.63 36.75-16.15 37.07-15.85 37.4-15.55 38.07-15.23 38.75-14.9 39.12-14.78 39.5-14.65 42.3-13.75 45.1-12.85 46.45-12.25 47.8-11.65 48.52-10.63 49.25-9.6 49.45-8.63 49.65-7.65 49.65-6.7L49.65-6.7Q49.65 0 40.45 0L40.45 0 31.8 0 31.8-4.2 40.45-4.2Q45.15-4.2 45.15-6.7L45.15-6.7Q45.15-7.9 43.77-8.7 42.4-9.5 40.42-10.05 38.45-10.6 36.47-11.33 34.5-12.05 33.12-13.68 31.75-15.3 31.75-17.7L31.75-17.7Q31.75-20.75 34.1-22.38 36.45-24 39.8-24L39.8-24ZM71.05-5.25L71.05-5.25 74.05-2.3Q70.59 0.5 66.15 0.5L66.15 0.5Q60.6 0.5 57.25-3.08 53.9-6.65 53.9-12L53.9-12Q53.9-17.25 57.42-20.88 60.95-24.5 66.15-24.5L66.15-24.5Q70.59-24.5 74.05-21.7L74.05-21.7 71.09-18.7Q69-20.3 66.15-20.3L66.15-20.3Q62.7-20.3 60.67-18.03 58.65-15.75 58.65-12 58.65-8.25 60.67-5.98 62.7-3.7 66.15-3.7L66.15-3.7Q69.05-3.7 71.05-5.25ZM91.64-14.1L91.64-14.1 91.64-9.6Q89.74-11.05 86.99-11.05L86.99-11.05Q84.64-11.05 83.34-10.13 82.04-9.2 82.04-7.5L82.04-7.5Q82.04-4.2 86.94-4.2L86.94-4.2 93.54-4.2 93.54-13.75Q93.54-19.8 87.64-19.8L87.64-19.8 79.64-19.8 79.64-24 87.89-24Q92.74-24 95.34-21.6 97.94-19.2 97.94-14.7L97.94-14.7 97.94 0 86.79 0Q82.54 0 80.04-1.9 77.54-3.8 77.54-7.45 77.54-11.1 80.19-13 82.84-14.9 86.84-14.9L86.84-14.9Q89.09-14.9 91.64-14.1ZM107.09 0L102.69 0 102.69-13.65Q102.69-19.4 104.84-21.6L104.84-21.6Q105.89-22.7 107.39-23.25 108.89-23.8 110.02-23.9 111.14-24 113.09-24L113.09-24 117.49-24 117.49-19.8 112.19-19.8Q111.19-19.8 110.64-19.75 110.09-19.7 109.34-19.4 108.59-19.1 108.04-18.45L108.04-18.45Q107.09-17.25 107.09-13.65L107.09-13.65 107.09 0Z" opacity="1" transform="matrix(1,0,0,1,0,0)" fill="#030303" class="undefined-text-0" data-fill-palette-color="primary" id="text-0"></path></svg></g></svg></g></svg></g></svg></g></svg></g></svg></g></svg></g></svg></g><defs></defs></svg><rect width="395.52" height="247.2" fill="none" stroke="none" visibility="hidden"></rect></g></svg></g></svg>